# File created by Blade
# Date/Time:  Wed Sep 24 20:26:02 2014
# Frame Rate: 120.000 fps
#------------------------------------------------------
:FULLY-SPECIFIED
:DEGREES
616
root -6.692915 33.449110 0.944246 172.383191 -66.664552 -84.436115
Spine -31.850713 10.998794 -5.502859
Head -64.646934 11.578866 10.708585
LeftShoulder -9.171954 24.238856 15.363698
LeftArm 13.793003 37.183333 -63.762640
LeftForeArm 15.291115 0.000000 15.347604
LeftHand -31.006272 -0.000000 -1.993536
LeftHandThumb1 -26.253704 0.000000 33.147579
RightShoulder -16.799215 8.658334 -20.583916
RightArm -28.588770 -32.873112 101.881101
RightForeArm -28.265509 0.000000 14.433486
RightHand -4.241790 -0.000000 19.384386
RightHandThumb1 -24.326973 -0.000000 -32.862282
LeftUpLeg -83.932967 15.310447 1.211926
LeftLeg -6.439280 -0.000000 0.000000
LeftFoot -8.557430 17.976793 -7.343324
LeftToeBase 3.822381 -0.000000 -0.000000
RightUpLeg 10.531169 -9.430548 -13.987721
RightLeg 19.421522 -0.000000 -0.000000
RightFoot 40.922628 1.915053 3.189157
RightToeBase 17.631406 -0.000000 -0.000000
617
root -6.690471 33.460930 0.923623 172.331672 -66.443006 -84.084543
Spine -32.002777 11.079071 -5.375127
Head -64.641136 11.718367 10.830026
LeftShoulder -9.207022 24.326467 15.396716
LeftArm 13.608230 37.319990 -63.767563
LeftForeArm 15.368615 -0.000000 15.203784
LeftHand -30.619529 -0.000000 -2.685589
LeftHandThumb1 -26.253704 0.000000 33.147579
RightShoulder -16.704655 8.652436 -20.511274
RightArm -28.574098 -32.857356 101.844312
RightForeArm -28.252733 -0.000000 14.459928
RightHand -4.221587 -0.000000 19.387560
RightHandThumb1 -24.326973 -0.000000 -32.862282
LeftUpLeg -84.187470 15.536235 1.544355
LeftLeg -6.405326 -0.000000 0.000000
LeftFoot -8.561383 18.249140 -7.243185
LeftToeBase 3.937057 -0.000000 -0.000000
RightUpLeg 10.415249 -9.339283 -13.846751
RightLeg 19.451436 -0.000000 -0.000000
RightFoot 40.919825 1.921222 3.079971
RightToeBase 17.841652 -0.000000 -0.000000
618
root -6.688827 33.471436 0.909533 172.480936 -66.266213 -83.960593
Spine -32.124234 11.164486 -5.386512
Head -64.705050 11.782677 10.941612
LeftShoulder -9.225939 24.356404 15.457086
LeftArm 13.369743 37.326934 -63.777627
LeftForeArm 15.638991 -0.000000 15.142292
LeftHand -30.778711 0.000000 -2.695734
LeftHandThumb1 -26.253704 0.000000 33.147579
RightShoulder -16.719096 8.643662 -20.438564
RightArm -28.512910 -32.828190 101.788682
RightForeArm -28.254540 -0.000000 14.433176
RightHand -4.213419 0.000000 19.438591
RightHandThumb1 -24.326973 -0.000000 -32.862282
LeftUpLeg -84.463417 15.729580 1.602466
LeftLeg -6.384513 -0.000000 0.000000
LeftFoot -8.556721 18.345188 -7.185620
LeftToeBase 3.990769 -0.000000 -0.000000
RightUpLeg 10.310205 -9.250246 -13.811031
RightLeg 19.494251 -0.000000 -0.000000
RightFoot 40.952393 1.911579 3.022047
RightToeBase 18.001701 -0.000000 -0.000000
619
root -6.685344 33.482070 0.900272 172.656033 -66.083760 -83.882829
Spine -32.197085 11.278142 -5.388879
Head -64.855359 11.828149 10.993533
LeftShoulder -9.235820 24.409227 15.480321
LeftArm 13.165000 37.323887 -63.779858
LeftForeArm 15.601207 -0.000000 15.074583
LeftHand -30.823132 -0.000000 -2.655594
LeftHandThumb1 -26.253704 0.000000 33.147579
RightShoulder -16.754197 8.702570 -20.416792
RightArm -28.495506 -32.744823 101.751551
RightForeArm -28.336484 -0.000000 14.378353
RightHand -4.205246 -0.000000 19.451958
RightHandThumb1 -24.326973 -0.000000 -32.862282
LeftUpLeg -84.733825 15.933798 1.585208
LeftLeg -6.371581 -0.000000 0.000000
LeftFoot -8.546394 18.345427 -7.201344
LeftToeBase 4.111138 -0.000000 -0.000000
RightUpLeg 10.225902 -9.146640 -13.802375
RightLeg 19.520798 -0.000000 -0.000000
RightFoot 41.090291 2.014193 2.788049
RightToeBase 17.737257 -0.000000 -0.000000
620
root -6.681317 33.494570 0.891302 172.817666 -65.930683 -83.798959
Spine -32.241368 11.367256 -5.390418
Head -64.994101 11.862656 11.032957
LeftShoulder -9.231607 24.372664 15.506935
LeftArm 12.852000 37.226581 -63.863143
LeftForeArm 15.749957 -0.000000 15.066861
LeftHand -30.562531 0.000000 -3.507342
LeftHandThumb1 -26.253704 0.000000 33.147579
RightShoulder -16.781432 8.688505 -20.361202
RightArm -28.387149 -32.662669 101.648176
RightForeArm -28.415133 -0.000000 14.353071
RightHand -4.206637 -0.000000 19.446124
RightHandThumb1 -24.326973 -0.000000 -32.862282
LeftUpLeg -85.046882 16.121349 1.417246
LeftLeg -6.341697 -0.000000 0.000000
LeftFoot -8.499376 18.186230 -7.304094
LeftToeBase 3.960666 -0.000000 -0.000000
RightUpLeg 10.160713 -9.008657 -13.786104
RightLeg 19.556200 -0.000000 -0.000000
RightFoot 41.076131 1.962779 2.849362
RightToeBase 17.856401 -0.000000 -0.000000
621
root -6.676291 33.506464 0.885420 173.024051 -65.782386 -83.769664
Spine -32.269946 11.433444 -5.403408
Head -65.178358 11.939807 11.020110
LeftShoulder -9.260814 24.441416 15.548678
LeftArm 12.673891 37.100089 -63.889835
LeftForeArm 16.075701 0.000000 15.017693
LeftHand -30.598187 -0.000000 -3.219015
LeftHandThumb1 -26.253704 0.000000 33.147579
RightShoulder -16.785813 8.742612 -20.321329
RightArm -28.376986 -32.611328 101.616739
RightForeArm -28.474630 0.000000 14.350043
RightHand -4.255930 -0.000000 19.397134
RightHandThumb1 -24.326973 -0.000000 -32.862282
LeftUpLeg -85.366884 16.309034 1.152292
LeftLeg -6.334062 -0.000000 0.000000
LeftFoot -8.510490 17.911179 -7.539981
LeftToeBase 4.121654 -0.000000 -0.000000
RightUpLeg 10.096939 -8.814395 -13.776062
RightLeg 19.598513 -0.000000 -0.000000
RightFoot 41.035037 1.779995 3.022582
RightToeBase 18.076322 -0.000000 -0.000000
622
root -6.668993 33.517263 0.874696 173.122544 -65.671516 -83.661113
Spine -32.251350 11.471435 -5.380580
Head -65.364486 12.032580 10.966635
LeftShoulder -9.253073 24.502322 15.609732
LeftArm 12.483897 37.011605 -63.934256
LeftForeArm 15.885534 -0.000000 15.026122
LeftHand -30.542209 -0.000000 -3.541368
LeftHandThumb1 -26.253704 0.000000 33.147579
RightShoulder -16.775202 8.761193 -20.294672
RightArm -28.325272 -32.478394 101.539756
RightForeArm -28.580623 -0.000000 14.386363
RightHand -4.279306 -0.000000 19.424132
RightHandThumb1 -24.326973 -0.000000 -32.862282
LeftUpLeg -85.659291 16.467943 0.942886
LeftLeg -6.310154 -0.000000 0.000000
LeftFoot -8.448279 17.617547 -7.635609
LeftToeBase 4.000213 -0.000000 -0.000000
RightUpLeg 10.114978 -8.753388 -13.772147
RightLeg 19.585021 -0.000000 -0.000000
RightFoot 41.071497 1.760659 3.081721
RightToeBase 18.026700 -0.000000 -0.000000
